:SAMPLES-PER-SECOND 30
:FRAME-RANGE 1-2643
:FULLY-SPECIFIED
:DEGREES
992
root  -77.6365 37.2627 -32.1944 1.81885 12.5217 5.51596
RightUpLeg  -18.7869 -0.3354 -12.7848
RightLeg  70.3135 0.0610435 -0.624147
RightFoot  -6.71202 -0.475074 10.5915
RightToes  5.38607e-012 1.2921e-014 -6.02303e-014
Spine  2.57222 1.13115 0.562258
Spine1  5.46996 2.21275 -7.74909
HEad  2.62744 29.8479 -8.40184
LeftShoulder1  1.39331 -1.67693 -21.8723
LeftArm  -1.19265 -1.87377 -54.6273
LeftForeArm  36.7013 3.22333 -13.1235
LeftHand  -0.0785785 4.12913 5.62362
RightShoulder  2.41961 4.58989 24.6056
RightArm  -26.5776 18.7762 57.5024
RightForeArm  76.9587 -4.49178 0.358441
RightHand  0.566914 -8.57061 -21.0158
LeftUpLeg  -19.3838 -5.90393 -13.3266
LeftLeg  33.1565 6.14591 4.69024
LeftFoot  -13.0815 0.184007 6.92197
LeftToes  -4.79707e-012 -5.93756e-011 -7.55542e-012
993
root  -77.5402 37.6701 -30.5018 2.02856 14.4514 4.71387
RightUpLeg  -22.1081 -2.11277 -12.2044
RightLeg  63.7271 -0.916829 -2.59854
RightFoot  -9.57843 -0.224074 10.2953
RightToes  5.38607e-012 1.2921e-014 -6.02303e-014
Spine  2.26794 0.0916707 -0.29302
Spine1  4.72798 0.704986 -5.80326
HEad  2.7906 30.676 -9.19889
LeftShoulder1  1.60051 -2.41579 -21.8874
LeftArm  1.55971 -4.89601 -58.2674
LeftForeArm  37.065 -0.77965 -13.299
LeftHand  -0.0990395 3.75799 5.94244
RightShoulder  2.17547 3.77163 24.6877
RightArm  -28.4059 14.7648 55.4965
RightForeArm  77.4434 -4.37956 -0.17984
RightHand  0.575131 -8.74097 -20.2905
LeftUpLeg  -15.4686 -6.61219 -12.2057
LeftLeg  30.8181 5.3011 3.78555
LeftFoot  -14.4091 0.266673 6.71258
LeftToes  -4.79707e-012 -5.93756e-011 -7.55542e-012
994
root  -77.4461 38.041 -28.8018 2.36511 16.5159 3.74158
RightUpLeg  -24.4379 -3.87573 -11.6228
RightLeg  54.3767 -2.59076 -4.27631
RightFoot  -10.2804 -0.167679 10.5175
RightToes  5.38607e-012 1.2921e-014 -6.02303e-014
Spine  1.78067 -1.12451 -0.906402
Spine1  4.06615 -0.83892 -3.8498
HEad  2.36164 31.211 -9.62805
LeftShoulder1  1.79145 -3.17551 -21.5363
LeftArm  6.48995 -8.38448 -61.4592
LeftForeArm  37.7417 -4.96978 -13.0184
LeftHand  -0.098128 3.78216 5.95883
RightShoulder  1.95351 2.97354 25.0597
RightArm  -29.7172 10.8636 53.0843
RightForeArm  77.1756 -4.34585 -0.442441
RightHand  0.576873 -8.8324 -19.8462
LeftUpLeg  -11.6678 -7.62616 -10.7542
LeftLeg  28.0578 4.49439 2.96603
LeftFoot  -15.5018 0.321769 6.28454
LeftToes  -4.79707e-012 -5.93756e-011 -7.55542e-012
995
root  -77.3669 38.3192 -27.1123 2.63879 17.9088 2.85828
RightUpLeg  -25.6305 -4.50029 -11.4291
RightLeg  42.7651 -4.57524 -4.80234
RightFoot  -9.23105 -0.25692 10.5054
RightToes  5.38607e-012 1.2921e-014 -6.02303e-014
Spine  1.25303 -2.05473 -1.38249
Spine1  3.79738 -1.96804 -2.13921
HEad  1.31368 31.6236 -10.0026
LeftShoulder1  1.92295 -3.8333 -20.7867
LeftArm  12.0007 -12.3468 -64.337
LeftForeArm  36.713 -8.69714 -12.1316
LeftHand  -0.081953 4.08585 5.76639
RightShoulder  1.76552 2.2854 25.5292
RightArm  -30.8129 7.23154 50.4954
RightForeArm  76.5103 -4.33183 -0.686319
RightHand  0.566774 -8.83115 -19.5381
LeftUpLeg  -7.90252 -7.3534 -9.20564
LeftLeg  25.0853 3.0204 1.94238
LeftFoot  -16.5302 0.369842 5.96238
LeftToes  -4.79707e-012 -5.93756e-011 -7.55542e-012
996
root  -77.2974 38.4488 -25.4247 3.03809 19.0284 2.52142
RightUpLeg  -25.5972 -3.51158 -12.4546
RightLeg  29.5396 -5.36928 -3.50779
RightFoot  -9.00029 -0.280068 10.6748
RightToes  5.38607e-012 1.2921e-014 -6.02303e-014
Spine  0.431544 -2.78659 -2.06427
Spine1  4.13669 -2.80645 -0.873908
HEad  -0.0988338 31.8145 -10.332
LeftShoulder1  2.01708 -4.42824 -19.8723
LeftArm  16.2097 -16.9511 -66.6205
LeftForeArm  33.7459 -10.7269 -11.4468
LeftHand  -0.109013 3.62349 6.19998
RightShoulder  1.63069 1.76861 26.0965
RightArm  -31.8493 3.89318 47.7713
RightForeArm  75.6909 -4.30638 -1.0323
RightHand  0.597865 -9.01641 -19.5349
LeftUpLeg  -4.26213 -5.917 -8.13796
LeftLeg  22.2824 0.646142 1.18062
LeftFoot  -17.592 0.434426 6.01268
LeftToes  -4.79707e-012 -5.93756e-011 -7.55542e-012
997
root  -77.2396 38.3909 -23.6606 3.25653 19.9832 2.35193
RightUpLeg  -24.5725 -1.5385 -14.2202
RightLeg  16.4423 -4.54442 -1.71082
RightFoot  -9.06652 -0.273322 10.6246
RightToes  5.38607e-012 1.2921e-014 -6.02303e-014
Spine  -0.817667 -3.37437 -2.32683
Spine1  5.15546 -3.36802 -0.507586
HEad  -0.926694 31.799 -10.1989
LeftShoulder1  2.07142 -4.79087 -19.3387
LeftArm  17.579 -21.659 -68.0558
LeftForeArm  31.4708 -11.1945 -11.2574
LeftHand  -0.131961 3.18829 6.29445
RightShoulder  1.5293 1.37938 26.6095
RightArm  -33.2213 0.965507 45.2612
RightForeArm  75.5103 -4.18431 -1.78352
RightHand  0.579188 -8.93393 -19.3898
LeftUpLeg  -0.663942 -4.20534 -7.07362
LeftLeg  20.2759 -1.97587 0.765325
LeftFoot  -19.1944 0.503987 5.65601
LeftToes  -4.79707e-012 -5.93756e-011 -7.55542e-012
